# xmcd CD database file
#
# Track frame offsets:
#	150
#	33758
#	46146
#	65566
#	81916
#	98176
#	118389
#	135114
#	153469
#	172475
#	195225
#	216767
#	243084
#	264209
#	284373
#	306878
#
# Disc length: 4391 seconds
#
# Revision: 0
# Processed by: cddbd v1.5.2PL0 Copyright (c) Steve Scherf et al.
# Submitted via: CDex 1,2,0,0
#
DISCID=da112510
DTITLE=Various Artist - Exquisite Jazz Collection 2
DYEAR=1900
DGENRE=Jazz
TTITLE0=Le Vie en Rose - Grace Jones
TTITLE1=Promise Me a Carousel - David Benoit and M L Young
TTITLE2=Under the Influence of Love - Love Unlimited
TTITLE3=I'm Just Warmin' Up - Eloise Laws
TTITLE4=Livin' It Up - Ricky Peterson
TTITLE5=Hearts - Marty Balin
TTITLE6=Steal the Night - Stevie Woods
TTITLE7=We're in Love - Patti Austin
TTITLE8=Dreamwalkin' - Eric Tagg
TTITLE9=The Flight - Perri
TTITLE10=That Girl is Gone - David Pack
TTITLE11=Every Generation - Ronnie Laws
TTITLE12=You - George Duke
TTITLE13=Feelin' Blue - Earth, Wind and Fire
TTITLE14=Whispering Wave - Donna Summer
TTITLE15=Fancy Pants - Max Bennett and Freeway
EXTD=
EXTT0=
EXTT1=
EXTT2=
EXTT3=
EXTT4=
EXTT5=
EXTT6=
EXTT7=
EXTT8=
EXTT9=
EXTT10=
EXTT11=
EXTT12=
EXTT13=
EXTT14=
EXTT15=
PLAYORDER=
